<mxfile host="app.diagrams.net" modified="2024-05-13T18:57:39.513Z" agent="Mozilla/5.0 (Windows NT 10.0; Win64; x64) AppleWebKit/537.36 (KHTML, like Gecko) Chrome/124.0.0.0 Safari/537.36" etag="qBYjJm_uY1PJuZijNXAj" version="24.3.1" type="device">
  <diagram name="Seite-1" id="HNFMVPYxoOdgtCr50QKa">
    <mxGraphModel dx="3104" dy="1220" grid="1" gridSize="10" guides="1" tooltips="1" connect="1" arrows="1" fold="1" page="0" pageScale="1" pageWidth="827" pageHeight="1169" math="0" shadow="0">
      <root>
        <mxCell id="0" />
        <mxCell id="1" parent="0" />
        <mxCell id="UVYZc0HdikAsIzzW2pVC-30" value="«Annotation»&lt;br&gt;&lt;b&gt;Datenbanksystem&lt;/b&gt;" style="html=1;dropTarget=0;whiteSpace=wrap;" vertex="1" parent="1">
          <mxGeometry x="-130" y="1150" width="180" height="90" as="geometry" />
        </mxCell>
        <mxCell id="UVYZc0HdikAsIzzW2pVC-31" value="" style="shape=module;jettyWidth=8;jettyHeight=4;" vertex="1" parent="UVYZc0HdikAsIzzW2pVC-30">
          <mxGeometry x="1" width="20" height="20" relative="1" as="geometry">
            <mxPoint x="-27" y="7" as="offset" />
          </mxGeometry>
        </mxCell>
        <mxCell id="UVYZc0HdikAsIzzW2pVC-44" value="" style="group" vertex="1" connectable="0" parent="1">
          <mxGeometry x="670" y="720" width="490" height="270" as="geometry" />
        </mxCell>
        <mxCell id="UVYZc0HdikAsIzzW2pVC-21" value="&lt;p style=&quot;margin:0px;margin-top:6px;text-align:center;&quot;&gt;&lt;b&gt;Shared&lt;/b&gt;&lt;/p&gt;&lt;hr size=&quot;1&quot; style=&quot;border-style:solid;&quot;&gt;&lt;p style=&quot;margin:0px;margin-left:8px;&quot;&gt;&lt;br&gt;&lt;/p&gt;" style="align=left;overflow=fill;html=1;dropTarget=0;whiteSpace=wrap;" vertex="1" parent="UVYZc0HdikAsIzzW2pVC-44">
          <mxGeometry width="490" height="270" as="geometry" />
        </mxCell>
        <mxCell id="UVYZc0HdikAsIzzW2pVC-22" value="" style="shape=component;jettyWidth=8;jettyHeight=4;" vertex="1" parent="UVYZc0HdikAsIzzW2pVC-21">
          <mxGeometry x="1" width="20" height="20" relative="1" as="geometry">
            <mxPoint x="-24" y="4" as="offset" />
          </mxGeometry>
        </mxCell>
        <mxCell id="UVYZc0HdikAsIzzW2pVC-26" value="&lt;p style=&quot;margin:0px;margin-top:4px;text-align:center;&quot;&gt;&lt;i&gt;&amp;lt;&amp;lt;@Interface&amp;gt;&amp;gt;&lt;/i&gt;&lt;br&gt;&lt;b&gt;Start&lt;/b&gt;&lt;/p&gt;&lt;hr size=&quot;1&quot; style=&quot;border-style:solid;&quot;&gt;&lt;p style=&quot;margin:0px;margin-left:4px;&quot;&gt;&lt;br&gt;&lt;/p&gt;" style="verticalAlign=top;align=left;overflow=fill;html=1;whiteSpace=wrap;" vertex="1" parent="UVYZc0HdikAsIzzW2pVC-44">
          <mxGeometry x="53.45454545454546" y="154.28571428571428" width="169.27272727272728" height="77.14285714285714" as="geometry" />
        </mxCell>
        <mxCell id="UVYZc0HdikAsIzzW2pVC-27" value="&lt;p style=&quot;margin:0px;margin-top:4px;text-align:center;&quot;&gt;&lt;i&gt;&amp;lt;&amp;lt;@Interface&amp;gt;&amp;gt;&lt;/i&gt;&lt;br&gt;&lt;b&gt;Stop&lt;/b&gt;&lt;/p&gt;&lt;hr size=&quot;1&quot; style=&quot;border-style:solid;&quot;&gt;&lt;p style=&quot;margin:0px;margin-left:4px;&quot;&gt;&lt;br&gt;&lt;/p&gt;" style="verticalAlign=top;align=left;overflow=fill;html=1;whiteSpace=wrap;" vertex="1" parent="UVYZc0HdikAsIzzW2pVC-44">
          <mxGeometry x="53.45454545454546" y="48.214285714285715" width="169.27272727272728" height="77.14285714285714" as="geometry" />
        </mxCell>
        <mxCell id="UVYZc0HdikAsIzzW2pVC-28" value="&lt;p style=&quot;margin:0px;margin-top:4px;text-align:center;&quot;&gt;&lt;i&gt;&amp;lt;&amp;lt;Interface&amp;gt;&amp;gt;&lt;/i&gt;&lt;br&gt;&lt;b&gt;Logger&lt;/b&gt;&lt;/p&gt;&lt;hr size=&quot;1&quot; style=&quot;border-style:solid;&quot;&gt;&lt;p style=&quot;margin:0px;margin-left:4px;&quot;&gt;+ sendLog(message : String):&lt;/p&gt;" style="verticalAlign=top;align=left;overflow=fill;html=1;whiteSpace=wrap;" vertex="1" parent="UVYZc0HdikAsIzzW2pVC-44">
          <mxGeometry x="258.3636363636363" y="48.214285714285715" width="169.27272727272728" height="77.14285714285714" as="geometry" />
        </mxCell>
        <mxCell id="UVYZc0HdikAsIzzW2pVC-29" value="&lt;p style=&quot;margin:0px;margin-top:4px;text-align:center;&quot;&gt;&lt;i&gt;&amp;lt;&amp;lt;@Interface&amp;gt;&amp;gt;&lt;/i&gt;&lt;br&gt;&lt;b&gt;Inject&lt;/b&gt;&lt;/p&gt;&lt;hr size=&quot;1&quot; style=&quot;border-style:solid;&quot;&gt;&lt;p style=&quot;margin:0px;margin-left:4px;&quot;&gt;&lt;br&gt;&lt;/p&gt;" style="verticalAlign=top;align=left;overflow=fill;html=1;whiteSpace=wrap;" vertex="1" parent="UVYZc0HdikAsIzzW2pVC-44">
          <mxGeometry x="258.3636363636363" y="154.28571428571428" width="169.27272727272728" height="77.14285714285714" as="geometry" />
        </mxCell>
        <mxCell id="UVYZc0HdikAsIzzW2pVC-75" value="" style="group" vertex="1" connectable="0" parent="1">
          <mxGeometry x="765" y="310" width="300" height="260" as="geometry" />
        </mxCell>
        <mxCell id="UVYZc0HdikAsIzzW2pVC-6" value="&lt;p style=&quot;margin:0px;margin-top:6px;text-align:center;&quot;&gt;&lt;b&gt;Component&lt;/b&gt;&lt;/p&gt;&lt;hr size=&quot;1&quot; style=&quot;border-style:solid;&quot;&gt;&lt;p style=&quot;margin:0px;margin-left:8px;&quot;&gt;&lt;br&gt;&lt;/p&gt;" style="align=left;overflow=fill;html=1;dropTarget=0;whiteSpace=wrap;" vertex="1" parent="UVYZc0HdikAsIzzW2pVC-75">
          <mxGeometry width="300" height="260" as="geometry" />
        </mxCell>
        <mxCell id="UVYZc0HdikAsIzzW2pVC-7" value="" style="shape=component;jettyWidth=8;jettyHeight=4;" vertex="1" parent="UVYZc0HdikAsIzzW2pVC-6">
          <mxGeometry x="1" width="20" height="20" relative="1" as="geometry">
            <mxPoint x="-24" y="4" as="offset" />
          </mxGeometry>
        </mxCell>
        <mxCell id="UVYZc0HdikAsIzzW2pVC-8" value="Main" style="swimlane;fontStyle=0;childLayout=stackLayout;horizontal=1;startSize=26;fillColor=none;horizontalStack=0;resizeParent=1;resizeParentMax=0;resizeLast=0;collapsible=1;marginBottom=0;whiteSpace=wrap;html=1;" vertex="1" parent="UVYZc0HdikAsIzzW2pVC-75">
          <mxGeometry x="50" y="65" width="190" height="130" as="geometry" />
        </mxCell>
        <mxCell id="UVYZc0HdikAsIzzW2pVC-11" value="&lt;u&gt;+ @Inject logger: Logger&lt;/u&gt;" style="text;strokeColor=none;fillColor=none;align=left;verticalAlign=top;spacingLeft=4;spacingRight=4;overflow=hidden;rotatable=0;points=[[0,0.5],[1,0.5]];portConstraint=eastwest;whiteSpace=wrap;html=1;" vertex="1" parent="UVYZc0HdikAsIzzW2pVC-8">
          <mxGeometry y="26" width="190" height="26" as="geometry" />
        </mxCell>
        <mxCell id="UVYZc0HdikAsIzzW2pVC-9" value="&lt;u&gt;+ @Start start():&amp;nbsp;&lt;/u&gt;" style="text;strokeColor=none;fillColor=none;align=left;verticalAlign=top;spacingLeft=4;spacingRight=4;overflow=hidden;rotatable=0;points=[[0,0.5],[1,0.5]];portConstraint=eastwest;whiteSpace=wrap;html=1;" vertex="1" parent="UVYZc0HdikAsIzzW2pVC-8">
          <mxGeometry y="52" width="190" height="26" as="geometry" />
        </mxCell>
        <mxCell id="UVYZc0HdikAsIzzW2pVC-10" value="&lt;u&gt;+ @Stop stop():&lt;/u&gt;" style="text;strokeColor=none;fillColor=none;align=left;verticalAlign=top;spacingLeft=4;spacingRight=4;overflow=hidden;rotatable=0;points=[[0,0.5],[1,0.5]];portConstraint=eastwest;whiteSpace=wrap;html=1;" vertex="1" parent="UVYZc0HdikAsIzzW2pVC-8">
          <mxGeometry y="78" width="190" height="26" as="geometry" />
        </mxCell>
        <mxCell id="UVYZc0HdikAsIzzW2pVC-12" value="&lt;u&gt;+ setLogger(logger : Logger)&lt;/u&gt;" style="text;strokeColor=none;fillColor=none;align=left;verticalAlign=top;spacingLeft=4;spacingRight=4;overflow=hidden;rotatable=0;points=[[0,0.5],[1,0.5]];portConstraint=eastwest;whiteSpace=wrap;html=1;" vertex="1" parent="UVYZc0HdikAsIzzW2pVC-8">
          <mxGeometry y="104" width="190" height="26" as="geometry" />
        </mxCell>
        <mxCell id="UVYZc0HdikAsIzzW2pVC-82" value="" style="group" vertex="1" connectable="0" parent="1">
          <mxGeometry x="-580" y="350" width="1130" height="670" as="geometry" />
        </mxCell>
        <mxCell id="UVYZc0HdikAsIzzW2pVC-3" value="&lt;p style=&quot;margin:0px;margin-top:6px;text-align:center;&quot;&gt;&lt;b&gt;LZU&lt;/b&gt;&lt;/p&gt;&lt;hr size=&quot;1&quot; style=&quot;border-style:solid;&quot;&gt;&lt;p style=&quot;margin:0px;margin-left:8px;&quot;&gt;&lt;br&gt;&lt;/p&gt;" style="align=left;overflow=fill;html=1;dropTarget=0;whiteSpace=wrap;" vertex="1" parent="UVYZc0HdikAsIzzW2pVC-82">
          <mxGeometry x="-20" y="10" width="1110" height="660" as="geometry" />
        </mxCell>
        <mxCell id="UVYZc0HdikAsIzzW2pVC-4" value="" style="shape=component;jettyWidth=8;jettyHeight=4;" vertex="1" parent="UVYZc0HdikAsIzzW2pVC-3">
          <mxGeometry x="1" width="20" height="20" relative="1" as="geometry">
            <mxPoint x="-24" y="4" as="offset" />
          </mxGeometry>
        </mxCell>
        <mxCell id="UVYZc0HdikAsIzzW2pVC-47" style="rounded=0;orthogonalLoop=1;jettySize=auto;html=1;endArrow=none;endFill=0;startArrow=diamondThin;startFill=1;targetPerimeterSpacing=0;endSize=16;sourcePerimeterSpacing=0;startSize=19;exitX=1;exitY=0.5;exitDx=0;exitDy=0;" edge="1" parent="UVYZc0HdikAsIzzW2pVC-82" source="UVYZc0HdikAsIzzW2pVC-14" target="UVYZc0HdikAsIzzW2pVC-17">
          <mxGeometry relative="1" as="geometry">
            <mxPoint x="570.0000000000001" y="146" as="sourcePoint" />
            <mxPoint x="650.0000000000001" y="147.99999999999994" as="targetPoint" />
          </mxGeometry>
        </mxCell>
        <mxCell id="UVYZc0HdikAsIzzW2pVC-13" value="RuntimeEnvironment" style="swimlane;fontStyle=1;align=center;verticalAlign=top;childLayout=stackLayout;horizontal=1;startSize=26;horizontalStack=0;resizeParent=1;resizeParentMax=0;resizeLast=0;collapsible=1;marginBottom=0;whiteSpace=wrap;html=1;" vertex="1" parent="UVYZc0HdikAsIzzW2pVC-82">
          <mxGeometry x="20" y="60" width="330" height="436" as="geometry" />
        </mxCell>
        <mxCell id="UVYZc0HdikAsIzzW2pVC-14" value="- components: HashMap&amp;lt;UUID, Component&amp;gt;" style="text;strokeColor=none;fillColor=none;align=left;verticalAlign=top;spacingLeft=4;spacingRight=4;overflow=hidden;rotatable=0;points=[[0,0.5],[1,0.5]];portConstraint=eastwest;whiteSpace=wrap;html=1;" vertex="1" parent="UVYZc0HdikAsIzzW2pVC-13">
          <mxGeometry y="26" width="330" height="24" as="geometry" />
        </mxCell>
        <mxCell id="UVYZc0HdikAsIzzW2pVC-62" value="- threads: HashMap&amp;lt;UUID, Thread&amp;gt;" style="text;strokeColor=none;fillColor=none;align=left;verticalAlign=top;spacingLeft=4;spacingRight=4;overflow=hidden;rotatable=0;points=[[0,0.5],[1,0.5]];portConstraint=eastwest;whiteSpace=wrap;html=1;fontSize=11;" vertex="1" parent="UVYZc0HdikAsIzzW2pVC-13">
          <mxGeometry y="50" width="330" height="20" as="geometry" />
        </mxCell>
        <mxCell id="UVYZc0HdikAsIzzW2pVC-60" value="- modifyCache: boolean" style="text;strokeColor=none;fillColor=none;align=left;verticalAlign=top;spacingLeft=4;spacingRight=4;overflow=hidden;rotatable=0;points=[[0,0.5],[1,0.5]];portConstraint=eastwest;whiteSpace=wrap;html=1;fontSize=11;" vertex="1" parent="UVYZc0HdikAsIzzW2pVC-13">
          <mxGeometry y="70" width="330" height="20" as="geometry" />
        </mxCell>
        <mxCell id="UVYZc0HdikAsIzzW2pVC-61" value="&lt;u&gt;- instance: RuntimeEnvironment&lt;/u&gt;" style="text;strokeColor=none;fillColor=none;align=left;verticalAlign=top;spacingLeft=4;spacingRight=4;overflow=hidden;rotatable=0;points=[[0,0.5],[1,0.5]];portConstraint=eastwest;whiteSpace=wrap;html=1;fontSize=11;" vertex="1" parent="UVYZc0HdikAsIzzW2pVC-13">
          <mxGeometry y="90" width="330" height="20" as="geometry" />
        </mxCell>
        <mxCell id="UVYZc0HdikAsIzzW2pVC-15" value="" style="line;strokeWidth=1;fillColor=none;align=left;verticalAlign=middle;spacingTop=-1;spacingLeft=3;spacingRight=3;rotatable=0;labelPosition=right;points=[];portConstraint=eastwest;strokeColor=inherit;" vertex="1" parent="UVYZc0HdikAsIzzW2pVC-13">
          <mxGeometry y="110" width="330" height="8" as="geometry" />
        </mxCell>
        <mxCell id="UVYZc0HdikAsIzzW2pVC-16" value="&lt;u&gt;+ getInstance(): RuntimeEnvironment&lt;/u&gt;" style="text;strokeColor=none;fillColor=none;align=left;verticalAlign=top;spacingLeft=4;spacingRight=4;overflow=hidden;rotatable=0;points=[[0,0.5],[1,0.5]];portConstraint=eastwest;whiteSpace=wrap;html=1;" vertex="1" parent="UVYZc0HdikAsIzzW2pVC-13">
          <mxGeometry y="118" width="330" height="22" as="geometry" />
        </mxCell>
        <mxCell id="UVYZc0HdikAsIzzW2pVC-63" value="+ stop():" style="text;strokeColor=none;fillColor=none;align=left;verticalAlign=top;spacingLeft=4;spacingRight=4;overflow=hidden;rotatable=0;points=[[0,0.5],[1,0.5]];portConstraint=eastwest;whiteSpace=wrap;html=1;" vertex="1" parent="UVYZc0HdikAsIzzW2pVC-13">
          <mxGeometry y="140" width="330" height="22" as="geometry" />
        </mxCell>
        <mxCell id="UVYZc0HdikAsIzzW2pVC-64" value="+ deployComponent(jarPath : String, name : String): UUID" style="text;strokeColor=none;fillColor=none;align=left;verticalAlign=top;spacingLeft=4;spacingRight=4;overflow=hidden;rotatable=0;points=[[0,0.5],[1,0.5]];portConstraint=eastwest;whiteSpace=wrap;html=1;" vertex="1" parent="UVYZc0HdikAsIzzW2pVC-13">
          <mxGeometry y="162" width="330" height="28" as="geometry" />
        </mxCell>
        <mxCell id="UVYZc0HdikAsIzzW2pVC-67" value="+ startComponent(id : UUID):" style="text;strokeColor=none;fillColor=none;align=left;verticalAlign=top;spacingLeft=4;spacingRight=4;overflow=hidden;rotatable=0;points=[[0,0.5],[1,0.5]];portConstraint=eastwest;whiteSpace=wrap;html=1;" vertex="1" parent="UVYZc0HdikAsIzzW2pVC-13">
          <mxGeometry y="190" width="330" height="28" as="geometry" />
        </mxCell>
        <mxCell id="UVYZc0HdikAsIzzW2pVC-68" value="+ stopComponent(id : UUID):" style="text;strokeColor=none;fillColor=none;align=left;verticalAlign=top;spacingLeft=4;spacingRight=4;overflow=hidden;rotatable=0;points=[[0,0.5],[1,0.5]];portConstraint=eastwest;whiteSpace=wrap;html=1;" vertex="1" parent="UVYZc0HdikAsIzzW2pVC-13">
          <mxGeometry y="218" width="330" height="28" as="geometry" />
        </mxCell>
        <mxCell id="UVYZc0HdikAsIzzW2pVC-69" value="+ deleteComponent(id : UUID):" style="text;strokeColor=none;fillColor=none;align=left;verticalAlign=top;spacingLeft=4;spacingRight=4;overflow=hidden;rotatable=0;points=[[0,0.5],[1,0.5]];portConstraint=eastwest;whiteSpace=wrap;html=1;" vertex="1" parent="UVYZc0HdikAsIzzW2pVC-13">
          <mxGeometry y="246" width="330" height="28" as="geometry" />
        </mxCell>
        <mxCell id="UVYZc0HdikAsIzzW2pVC-70" value="+ getComponentState(id : UUID): State" style="text;strokeColor=none;fillColor=none;align=left;verticalAlign=top;spacingLeft=4;spacingRight=4;overflow=hidden;rotatable=0;points=[[0,0.5],[1,0.5]];portConstraint=eastwest;whiteSpace=wrap;html=1;" vertex="1" parent="UVYZc0HdikAsIzzW2pVC-13">
          <mxGeometry y="274" width="330" height="28" as="geometry" />
        </mxCell>
        <mxCell id="UVYZc0HdikAsIzzW2pVC-65" value="+ deployComponent(jarPath : String, name : String, id: UUID): UUID" style="text;strokeColor=none;fillColor=none;align=left;verticalAlign=top;spacingLeft=4;spacingRight=4;overflow=hidden;rotatable=0;points=[[0,0.5],[1,0.5]];portConstraint=eastwest;whiteSpace=wrap;html=1;" vertex="1" parent="UVYZc0HdikAsIzzW2pVC-13">
          <mxGeometry y="302" width="330" height="40" as="geometry" />
        </mxCell>
        <mxCell id="UVYZc0HdikAsIzzW2pVC-66" value="&lt;u&gt;+ injectLogger(m : Method):&lt;/u&gt;" style="text;strokeColor=none;fillColor=none;align=left;verticalAlign=top;spacingLeft=4;spacingRight=4;overflow=hidden;rotatable=0;points=[[0,0.5],[1,0.5]];portConstraint=eastwest;whiteSpace=wrap;html=1;" vertex="1" parent="UVYZc0HdikAsIzzW2pVC-13">
          <mxGeometry y="342" width="330" height="38" as="geometry" />
        </mxCell>
        <mxCell id="UVYZc0HdikAsIzzW2pVC-72" value="+ isModifyCache(): boolean" style="text;strokeColor=none;fillColor=none;align=left;verticalAlign=top;spacingLeft=4;spacingRight=4;overflow=hidden;rotatable=0;points=[[0,0.5],[1,0.5]];portConstraint=eastwest;whiteSpace=wrap;html=1;" vertex="1" parent="UVYZc0HdikAsIzzW2pVC-13">
          <mxGeometry y="380" width="330" height="28" as="geometry" />
        </mxCell>
        <mxCell id="UVYZc0HdikAsIzzW2pVC-73" value="+ doInjectLogger(clazz : Class&amp;lt;?&amp;gt;): boolean" style="text;strokeColor=none;fillColor=none;align=left;verticalAlign=top;spacingLeft=4;spacingRight=4;overflow=hidden;rotatable=0;points=[[0,0.5],[1,0.5]];portConstraint=eastwest;whiteSpace=wrap;html=1;" vertex="1" parent="UVYZc0HdikAsIzzW2pVC-13">
          <mxGeometry y="408" width="330" height="28" as="geometry" />
        </mxCell>
        <mxCell id="UVYZc0HdikAsIzzW2pVC-96" style="edgeStyle=orthogonalEdgeStyle;rounded=0;orthogonalLoop=1;jettySize=auto;html=1;endArrow=block;endFill=0;dashed=1;dashPattern=8 8;" edge="1" parent="UVYZc0HdikAsIzzW2pVC-82" source="UVYZc0HdikAsIzzW2pVC-17" target="UVYZc0HdikAsIzzW2pVC-74">
          <mxGeometry relative="1" as="geometry" />
        </mxCell>
        <mxCell id="UVYZc0HdikAsIzzW2pVC-110" style="edgeStyle=orthogonalEdgeStyle;rounded=0;orthogonalLoop=1;jettySize=auto;html=1;endArrow=open;endFill=0;" edge="1" parent="UVYZc0HdikAsIzzW2pVC-82" source="UVYZc0HdikAsIzzW2pVC-17" target="UVYZc0HdikAsIzzW2pVC-32">
          <mxGeometry relative="1" as="geometry">
            <Array as="points">
              <mxPoint x="673" y="90" />
              <mxPoint x="673" y="324" />
            </Array>
          </mxGeometry>
        </mxCell>
        <mxCell id="UVYZc0HdikAsIzzW2pVC-17" value="Component" style="swimlane;fontStyle=1;align=center;verticalAlign=top;childLayout=stackLayout;horizontal=1;startSize=26;horizontalStack=0;resizeParent=1;resizeParentMax=0;resizeLast=0;collapsible=1;marginBottom=0;whiteSpace=wrap;html=1;" vertex="1" parent="UVYZc0HdikAsIzzW2pVC-82">
          <mxGeometry x="440" y="40" width="190" height="294" as="geometry" />
        </mxCell>
        <mxCell id="UVYZc0HdikAsIzzW2pVC-18" value="- state: State" style="text;strokeColor=none;fillColor=none;align=left;verticalAlign=top;spacingLeft=4;spacingRight=4;overflow=hidden;rotatable=0;points=[[0,0.5],[1,0.5]];portConstraint=eastwest;whiteSpace=wrap;html=1;" vertex="1" parent="UVYZc0HdikAsIzzW2pVC-17">
          <mxGeometry y="26" width="190" height="26" as="geometry" />
        </mxCell>
        <mxCell id="UVYZc0HdikAsIzzW2pVC-87" value="- url: URL" style="text;strokeColor=none;fillColor=none;align=left;verticalAlign=top;spacingLeft=4;spacingRight=4;overflow=hidden;rotatable=0;points=[[0,0.5],[1,0.5]];portConstraint=eastwest;whiteSpace=wrap;html=1;" vertex="1" parent="UVYZc0HdikAsIzzW2pVC-17">
          <mxGeometry y="52" width="190" height="26" as="geometry" />
        </mxCell>
        <mxCell id="UVYZc0HdikAsIzzW2pVC-88" value="- id: UUID" style="text;strokeColor=none;fillColor=none;align=left;verticalAlign=top;spacingLeft=4;spacingRight=4;overflow=hidden;rotatable=0;points=[[0,0.5],[1,0.5]];portConstraint=eastwest;whiteSpace=wrap;html=1;" vertex="1" parent="UVYZc0HdikAsIzzW2pVC-17">
          <mxGeometry y="78" width="190" height="26" as="geometry" />
        </mxCell>
        <mxCell id="UVYZc0HdikAsIzzW2pVC-89" value="- name: String" style="text;strokeColor=none;fillColor=none;align=left;verticalAlign=top;spacingLeft=4;spacingRight=4;overflow=hidden;rotatable=0;points=[[0,0.5],[1,0.5]];portConstraint=eastwest;whiteSpace=wrap;html=1;" vertex="1" parent="UVYZc0HdikAsIzzW2pVC-17">
          <mxGeometry y="104" width="190" height="26" as="geometry" />
        </mxCell>
        <mxCell id="UVYZc0HdikAsIzzW2pVC-90" value="- startingClass: Class?*&amp;gt;" style="text;strokeColor=none;fillColor=none;align=left;verticalAlign=top;spacingLeft=4;spacingRight=4;overflow=hidden;rotatable=0;points=[[0,0.5],[1,0.5]];portConstraint=eastwest;whiteSpace=wrap;html=1;" vertex="1" parent="UVYZc0HdikAsIzzW2pVC-17">
          <mxGeometry y="130" width="190" height="26" as="geometry" />
        </mxCell>
        <mxCell id="UVYZc0HdikAsIzzW2pVC-19" value="" style="line;strokeWidth=1;fillColor=none;align=left;verticalAlign=middle;spacingTop=-1;spacingLeft=3;spacingRight=3;rotatable=0;labelPosition=right;points=[];portConstraint=eastwest;strokeColor=inherit;" vertex="1" parent="UVYZc0HdikAsIzzW2pVC-17">
          <mxGeometry y="156" width="190" height="8" as="geometry" />
        </mxCell>
        <mxCell id="UVYZc0HdikAsIzzW2pVC-20" value="+ init():" style="text;strokeColor=none;fillColor=none;align=left;verticalAlign=top;spacingLeft=4;spacingRight=4;overflow=hidden;rotatable=0;points=[[0,0.5],[1,0.5]];portConstraint=eastwest;whiteSpace=wrap;html=1;" vertex="1" parent="UVYZc0HdikAsIzzW2pVC-17">
          <mxGeometry y="164" width="190" height="26" as="geometry" />
        </mxCell>
        <mxCell id="UVYZc0HdikAsIzzW2pVC-92" value="+ stopComponent():" style="text;strokeColor=none;fillColor=none;align=left;verticalAlign=top;spacingLeft=4;spacingRight=4;overflow=hidden;rotatable=0;points=[[0,0.5],[1,0.5]];portConstraint=eastwest;whiteSpace=wrap;html=1;" vertex="1" parent="UVYZc0HdikAsIzzW2pVC-17">
          <mxGeometry y="190" width="190" height="26" as="geometry" />
        </mxCell>
        <mxCell id="UVYZc0HdikAsIzzW2pVC-93" value="+ deleteComponent(): boolean" style="text;strokeColor=none;fillColor=none;align=left;verticalAlign=top;spacingLeft=4;spacingRight=4;overflow=hidden;rotatable=0;points=[[0,0.5],[1,0.5]];portConstraint=eastwest;whiteSpace=wrap;html=1;" vertex="1" parent="UVYZc0HdikAsIzzW2pVC-17">
          <mxGeometry y="216" width="190" height="26" as="geometry" />
        </mxCell>
        <mxCell id="UVYZc0HdikAsIzzW2pVC-94" value="+ setState(state : State):" style="text;strokeColor=none;fillColor=none;align=left;verticalAlign=top;spacingLeft=4;spacingRight=4;overflow=hidden;rotatable=0;points=[[0,0.5],[1,0.5]];portConstraint=eastwest;whiteSpace=wrap;html=1;" vertex="1" parent="UVYZc0HdikAsIzzW2pVC-17">
          <mxGeometry y="242" width="190" height="26" as="geometry" />
        </mxCell>
        <mxCell id="UVYZc0HdikAsIzzW2pVC-95" value="- cacheState():" style="text;strokeColor=none;fillColor=none;align=left;verticalAlign=top;spacingLeft=4;spacingRight=4;overflow=hidden;rotatable=0;points=[[0,0.5],[1,0.5]];portConstraint=eastwest;whiteSpace=wrap;html=1;" vertex="1" parent="UVYZc0HdikAsIzzW2pVC-17">
          <mxGeometry y="268" width="190" height="26" as="geometry" />
        </mxCell>
        <mxCell id="UVYZc0HdikAsIzzW2pVC-43" value="" style="group" vertex="1" connectable="0" parent="UVYZc0HdikAsIzzW2pVC-82">
          <mxGeometry x="840" y="560" width="200" height="80" as="geometry" />
        </mxCell>
        <mxCell id="UVYZc0HdikAsIzzW2pVC-41" value="&lt;p style=&quot;margin:0px;margin-top:4px;text-align:center;&quot;&gt;&lt;b&gt;LoggerImpl&lt;/b&gt;&lt;/p&gt;&lt;hr size=&quot;1&quot; style=&quot;border-style:solid;&quot;&gt;&lt;div style=&quot;height:2px;&quot;&gt;&lt;/div&gt;" style="verticalAlign=top;align=left;overflow=fill;html=1;whiteSpace=wrap;" vertex="1" parent="UVYZc0HdikAsIzzW2pVC-43">
          <mxGeometry width="200" height="80" as="geometry" />
        </mxCell>
        <mxCell id="UVYZc0HdikAsIzzW2pVC-42" value="+ sendLog(message : String)&amp;nbsp;" style="text;strokeColor=none;fillColor=none;align=left;verticalAlign=top;spacingLeft=4;spacingRight=4;overflow=hidden;rotatable=0;points=[[0,0.5],[1,0.5]];portConstraint=eastwest;whiteSpace=wrap;html=1;" vertex="1" parent="UVYZc0HdikAsIzzW2pVC-43">
          <mxGeometry y="30" width="200" height="26" as="geometry" />
        </mxCell>
        <mxCell id="UVYZc0HdikAsIzzW2pVC-45" value="" style="group" vertex="1" connectable="0" parent="UVYZc0HdikAsIzzW2pVC-82">
          <mxGeometry x="510" y="250" width="570" height="240" as="geometry" />
        </mxCell>
        <mxCell id="UVYZc0HdikAsIzzW2pVC-32" value="&lt;p style=&quot;margin:0px;margin-top:4px;text-align:center;&quot;&gt;&amp;lt;&amp;lt;Abstract&amp;gt;&amp;gt;&lt;/p&gt;&lt;p style=&quot;margin:0px;margin-top:4px;text-align:center;&quot;&gt;&lt;b&gt;State&lt;/b&gt;&lt;/p&gt;&lt;hr size=&quot;1&quot; style=&quot;border-style:solid;&quot;&gt;&lt;p style=&quot;margin:0px;margin-left:4px;&quot;&gt;+ component: Component&lt;/p&gt;&lt;hr size=&quot;1&quot; style=&quot;border-style:solid;&quot;&gt;&lt;p style=&quot;margin: 0px 0px 0px 4px; line-height: 130%;&quot;&gt;+ getStateName(): String&lt;/p&gt;&lt;p style=&quot;margin: 0px 0px 0px 4px; line-height: 130%;&quot;&gt;&lt;span style=&quot;background-color: initial;&quot;&gt;+ init():&lt;/span&gt;&lt;/p&gt;&lt;p style=&quot;margin: 0px 0px 0px 4px; line-height: 130%;&quot;&gt;+ stopComponent():&lt;/p&gt;&lt;p style=&quot;margin: 0px 0px 0px 4px; line-height: 130%;&quot;&gt;+ deleteComponent(): boolean&lt;br&gt;&lt;/p&gt;" style="verticalAlign=top;align=left;overflow=fill;html=1;whiteSpace=wrap;" vertex="1" parent="UVYZc0HdikAsIzzW2pVC-45">
          <mxGeometry x="205.5737704918033" width="177.54098360655738" height="147.6923076923077" as="geometry" />
        </mxCell>
        <mxCell id="UVYZc0HdikAsIzzW2pVC-33" value="&lt;p style=&quot;margin:0px;margin-top:4px;text-align:center;&quot;&gt;&lt;b&gt;Deployed&lt;/b&gt;&lt;/p&gt;&lt;hr size=&quot;1&quot; style=&quot;border-style:solid;&quot;&gt;&lt;div style=&quot;height:2px;&quot;&gt;&lt;/div&gt;" style="verticalAlign=top;align=left;overflow=fill;html=1;whiteSpace=wrap;" vertex="1" parent="UVYZc0HdikAsIzzW2pVC-45">
          <mxGeometry y="184.6153846153846" width="130.81967213114754" height="55.38461538461539" as="geometry" />
        </mxCell>
        <mxCell id="UVYZc0HdikAsIzzW2pVC-34" value="&lt;p style=&quot;margin:0px;margin-top:4px;text-align:center;&quot;&gt;&lt;b&gt;Running&lt;/b&gt;&lt;/p&gt;&lt;hr size=&quot;1&quot; style=&quot;border-style:solid;&quot;&gt;&lt;div style=&quot;height:2px;&quot;&gt;&lt;/div&gt;" style="verticalAlign=top;align=left;overflow=fill;html=1;whiteSpace=wrap;" vertex="1" parent="UVYZc0HdikAsIzzW2pVC-45">
          <mxGeometry x="149.5081967213115" y="184.6153846153846" width="130.81967213114754" height="55.38461538461539" as="geometry" />
        </mxCell>
        <mxCell id="UVYZc0HdikAsIzzW2pVC-35" value="&lt;p style=&quot;margin:0px;margin-top:4px;text-align:center;&quot;&gt;&lt;b&gt;Stopped&lt;/b&gt;&lt;/p&gt;&lt;hr size=&quot;1&quot; style=&quot;border-style:solid;&quot;&gt;&lt;div style=&quot;height:2px;&quot;&gt;&lt;/div&gt;" style="verticalAlign=top;align=left;overflow=fill;html=1;whiteSpace=wrap;" vertex="1" parent="UVYZc0HdikAsIzzW2pVC-45">
          <mxGeometry x="299.016393442623" y="184.6153846153846" width="130.81967213114754" height="55.38461538461539" as="geometry" />
        </mxCell>
        <mxCell id="UVYZc0HdikAsIzzW2pVC-36" value="&lt;p style=&quot;margin:0px;margin-top:4px;text-align:center;&quot;&gt;&lt;b&gt;Disposed&lt;/b&gt;&lt;/p&gt;&lt;hr size=&quot;1&quot; style=&quot;border-style:solid;&quot;&gt;&lt;div style=&quot;height:2px;&quot;&gt;&lt;/div&gt;" style="verticalAlign=top;align=left;overflow=fill;html=1;whiteSpace=wrap;" vertex="1" parent="UVYZc0HdikAsIzzW2pVC-45">
          <mxGeometry x="439.1803278688525" y="184.6153846153846" width="130.81967213114754" height="55.38461538461539" as="geometry" />
        </mxCell>
        <mxCell id="UVYZc0HdikAsIzzW2pVC-37" style="edgeStyle=orthogonalEdgeStyle;rounded=0;orthogonalLoop=1;jettySize=auto;html=1;endArrow=block;endFill=0;endSize=11;" edge="1" parent="UVYZc0HdikAsIzzW2pVC-45" source="UVYZc0HdikAsIzzW2pVC-33" target="UVYZc0HdikAsIzzW2pVC-32">
          <mxGeometry relative="1" as="geometry">
            <Array as="points">
              <mxPoint x="65.40983606557377" y="166.15384615384616" />
              <mxPoint x="294.344262295082" y="166.15384615384616" />
            </Array>
          </mxGeometry>
        </mxCell>
        <mxCell id="UVYZc0HdikAsIzzW2pVC-38" style="edgeStyle=orthogonalEdgeStyle;rounded=0;orthogonalLoop=1;jettySize=auto;html=1;endSize=11;endArrow=block;endFill=0;" edge="1" parent="UVYZc0HdikAsIzzW2pVC-45" source="UVYZc0HdikAsIzzW2pVC-34" target="UVYZc0HdikAsIzzW2pVC-32">
          <mxGeometry relative="1" as="geometry" />
        </mxCell>
        <mxCell id="UVYZc0HdikAsIzzW2pVC-39" style="edgeStyle=orthogonalEdgeStyle;rounded=0;orthogonalLoop=1;jettySize=auto;html=1;endSize=11;endArrow=block;endFill=0;" edge="1" parent="UVYZc0HdikAsIzzW2pVC-45" source="UVYZc0HdikAsIzzW2pVC-35" target="UVYZc0HdikAsIzzW2pVC-32">
          <mxGeometry relative="1" as="geometry" />
        </mxCell>
        <mxCell id="UVYZc0HdikAsIzzW2pVC-40" style="edgeStyle=orthogonalEdgeStyle;rounded=0;orthogonalLoop=1;jettySize=auto;html=1;endArrow=block;endFill=0;endSize=11;" edge="1" parent="UVYZc0HdikAsIzzW2pVC-45" source="UVYZc0HdikAsIzzW2pVC-36" target="UVYZc0HdikAsIzzW2pVC-32">
          <mxGeometry relative="1" as="geometry">
            <Array as="points">
              <mxPoint x="504.59016393442624" y="166.15384615384616" />
              <mxPoint x="294.344262295082" y="166.15384615384616" />
            </Array>
          </mxGeometry>
        </mxCell>
        <mxCell id="UVYZc0HdikAsIzzW2pVC-59" value="" style="group" vertex="1" connectable="0" parent="UVYZc0HdikAsIzzW2pVC-82">
          <mxGeometry x="130" y="500" width="680" height="140" as="geometry" />
        </mxCell>
        <mxCell id="UVYZc0HdikAsIzzW2pVC-48" value="&lt;p style=&quot;margin:0px;margin-top:4px;text-align:center;&quot;&gt;&lt;i&gt;&amp;lt;&amp;lt;Interface&amp;gt;&amp;gt;&lt;/i&gt;&lt;br&gt;&lt;b&gt;Command&lt;/b&gt;&lt;/p&gt;&lt;hr size=&quot;1&quot; style=&quot;border-style:solid;&quot;&gt;&lt;p style=&quot;margin:0px;margin-left:4px;&quot;&gt;+ execute():&lt;br&gt;&lt;br&gt;&lt;/p&gt;" style="verticalAlign=top;align=left;overflow=fill;html=1;whiteSpace=wrap;" vertex="1" parent="UVYZc0HdikAsIzzW2pVC-59">
          <mxGeometry x="245" width="190" height="70" as="geometry" />
        </mxCell>
        <mxCell id="UVYZc0HdikAsIzzW2pVC-49" value="&lt;p style=&quot;margin:0px;margin-top:4px;text-align:center;&quot;&gt;&lt;b&gt;StartCommand&lt;/b&gt;&lt;/p&gt;&lt;hr size=&quot;1&quot; style=&quot;border-style:solid;&quot;&gt;&lt;div style=&quot;height:2px;&quot;&gt;&lt;/div&gt;" style="verticalAlign=top;align=left;overflow=fill;html=1;whiteSpace=wrap;" vertex="1" parent="UVYZc0HdikAsIzzW2pVC-59">
          <mxGeometry x="140" y="100" width="120" height="40" as="geometry" />
        </mxCell>
        <mxCell id="UVYZc0HdikAsIzzW2pVC-50" value="&lt;p style=&quot;margin:0px;margin-top:4px;text-align:center;&quot;&gt;&lt;b&gt;StopCommand&lt;/b&gt;&lt;/p&gt;&lt;hr size=&quot;1&quot; style=&quot;border-style:solid;&quot;&gt;&lt;div style=&quot;height:2px;&quot;&gt;&lt;/div&gt;" style="verticalAlign=top;align=left;overflow=fill;html=1;whiteSpace=wrap;" vertex="1" parent="UVYZc0HdikAsIzzW2pVC-59">
          <mxGeometry x="280" y="100" width="120" height="40" as="geometry" />
        </mxCell>
        <mxCell id="UVYZc0HdikAsIzzW2pVC-51" value="&lt;p style=&quot;margin:0px;margin-top:4px;text-align:center;&quot;&gt;&lt;b&gt;DeployCommand&lt;/b&gt;&lt;/p&gt;&lt;hr size=&quot;1&quot; style=&quot;border-style:solid;&quot;&gt;&lt;div style=&quot;height:2px;&quot;&gt;&lt;/div&gt;" style="verticalAlign=top;align=left;overflow=fill;html=1;whiteSpace=wrap;" vertex="1" parent="UVYZc0HdikAsIzzW2pVC-59">
          <mxGeometry y="100" width="120" height="40" as="geometry" />
        </mxCell>
        <mxCell id="UVYZc0HdikAsIzzW2pVC-52" value="&lt;p style=&quot;margin:0px;margin-top:4px;text-align:center;&quot;&gt;&lt;b&gt;GetStateCommand&lt;/b&gt;&lt;/p&gt;&lt;hr size=&quot;1&quot; style=&quot;border-style:solid;&quot;&gt;&lt;div style=&quot;height:2px;&quot;&gt;&lt;/div&gt;" style="verticalAlign=top;align=left;overflow=fill;html=1;whiteSpace=wrap;" vertex="1" parent="UVYZc0HdikAsIzzW2pVC-59">
          <mxGeometry x="420" y="100" width="120" height="40" as="geometry" />
        </mxCell>
        <mxCell id="UVYZc0HdikAsIzzW2pVC-53" value="&lt;p style=&quot;margin:0px;margin-top:4px;text-align:center;&quot;&gt;&lt;b&gt;DeleteCommand&lt;/b&gt;&lt;/p&gt;&lt;hr size=&quot;1&quot; style=&quot;border-style:solid;&quot;&gt;&lt;div style=&quot;height:2px;&quot;&gt;&lt;/div&gt;" style="verticalAlign=top;align=left;overflow=fill;html=1;whiteSpace=wrap;" vertex="1" parent="UVYZc0HdikAsIzzW2pVC-59">
          <mxGeometry x="560" y="100" width="120" height="40" as="geometry" />
        </mxCell>
        <mxCell id="UVYZc0HdikAsIzzW2pVC-55" style="edgeStyle=orthogonalEdgeStyle;rounded=0;orthogonalLoop=1;jettySize=auto;html=1;endArrow=block;endFill=0;endSize=9;dashed=1;dashPattern=8 8;" edge="1" parent="UVYZc0HdikAsIzzW2pVC-59" source="UVYZc0HdikAsIzzW2pVC-49" target="UVYZc0HdikAsIzzW2pVC-48">
          <mxGeometry relative="1" as="geometry">
            <Array as="points">
              <mxPoint x="200" y="90" />
              <mxPoint x="340" y="90" />
            </Array>
          </mxGeometry>
        </mxCell>
        <mxCell id="UVYZc0HdikAsIzzW2pVC-54" value="" style="edgeStyle=orthogonalEdgeStyle;rounded=0;orthogonalLoop=1;jettySize=auto;html=1;endArrow=block;endFill=0;dashed=1;endSize=9;dashPattern=8 8;" edge="1" parent="UVYZc0HdikAsIzzW2pVC-59" source="UVYZc0HdikAsIzzW2pVC-50" target="UVYZc0HdikAsIzzW2pVC-48">
          <mxGeometry relative="1" as="geometry" />
        </mxCell>
        <mxCell id="UVYZc0HdikAsIzzW2pVC-56" style="edgeStyle=orthogonalEdgeStyle;rounded=0;orthogonalLoop=1;jettySize=auto;html=1;dashed=1;dashPattern=8 8;endArrow=block;endFill=0;endSize=9;" edge="1" parent="UVYZc0HdikAsIzzW2pVC-59" source="UVYZc0HdikAsIzzW2pVC-51" target="UVYZc0HdikAsIzzW2pVC-48">
          <mxGeometry relative="1" as="geometry">
            <Array as="points">
              <mxPoint x="60" y="90" />
              <mxPoint x="340" y="90" />
            </Array>
          </mxGeometry>
        </mxCell>
        <mxCell id="UVYZc0HdikAsIzzW2pVC-57" style="edgeStyle=orthogonalEdgeStyle;rounded=0;orthogonalLoop=1;jettySize=auto;html=1;dashed=1;dashPattern=8 8;endArrow=block;endFill=0;endSize=9;" edge="1" parent="UVYZc0HdikAsIzzW2pVC-59" source="UVYZc0HdikAsIzzW2pVC-52" target="UVYZc0HdikAsIzzW2pVC-48">
          <mxGeometry relative="1" as="geometry">
            <Array as="points">
              <mxPoint x="480" y="90" />
              <mxPoint x="340" y="90" />
            </Array>
          </mxGeometry>
        </mxCell>
        <mxCell id="UVYZc0HdikAsIzzW2pVC-58" style="edgeStyle=orthogonalEdgeStyle;rounded=0;orthogonalLoop=1;jettySize=auto;html=1;dashed=1;dashPattern=8 8;endSize=9;endArrow=block;endFill=0;" edge="1" parent="UVYZc0HdikAsIzzW2pVC-59" source="UVYZc0HdikAsIzzW2pVC-53" target="UVYZc0HdikAsIzzW2pVC-48">
          <mxGeometry relative="1" as="geometry">
            <Array as="points">
              <mxPoint x="620" y="90" />
              <mxPoint x="340" y="90" />
            </Array>
          </mxGeometry>
        </mxCell>
        <mxCell id="UVYZc0HdikAsIzzW2pVC-74" value="&lt;p style=&quot;margin:0px;margin-top:4px;text-align:center;&quot;&gt;&lt;i&gt;&amp;lt;&amp;lt;Interface&amp;gt;&amp;gt;&lt;/i&gt;&lt;br&gt;&lt;b&gt;Runnable&lt;/b&gt;&lt;/p&gt;&lt;hr size=&quot;1&quot; style=&quot;border-style:solid;&quot;&gt;&lt;p style=&quot;margin:0px;margin-left:4px;&quot;&gt;+ run():&lt;br&gt;&lt;br&gt;&lt;/p&gt;" style="verticalAlign=top;align=left;overflow=fill;html=1;whiteSpace=wrap;" vertex="1" parent="UVYZc0HdikAsIzzW2pVC-82">
          <mxGeometry x="700" y="60" width="140" height="75" as="geometry" />
        </mxCell>
        <mxCell id="UVYZc0HdikAsIzzW2pVC-109" value="&lt;p style=&quot;margin:0px;margin-top:4px;text-align:center;&quot;&gt;&lt;b&gt;CLI&lt;/b&gt;&lt;/p&gt;&lt;hr size=&quot;1&quot; style=&quot;border-style:solid;&quot;&gt;&lt;p style=&quot;margin:0px;margin-left:4px;&quot;&gt;- rte: RuntimeEnviron&lt;/p&gt;&lt;hr size=&quot;1&quot; style=&quot;border-style:solid;&quot;&gt;&lt;p style=&quot;margin:0px;margin-left:4px;&quot;&gt;+ delegateCommand(command : String):&lt;/p&gt;&lt;p style=&quot;margin:0px;margin-left:4px;&quot;&gt;+ main():&lt;br&gt;&lt;/p&gt;" style="verticalAlign=top;align=left;overflow=fill;html=1;whiteSpace=wrap;" vertex="1" parent="UVYZc0HdikAsIzzW2pVC-82">
          <mxGeometry x="840" y="110" width="230" height="100" as="geometry" />
        </mxCell>
        <mxCell id="UVYZc0HdikAsIzzW2pVC-83" value="" style="rounded=0;orthogonalLoop=1;jettySize=auto;html=1;endArrow=halfCircle;endFill=0;endSize=9;strokeWidth=1;sketch=0;" edge="1" parent="1" source="UVYZc0HdikAsIzzW2pVC-3">
          <mxGeometry relative="1" as="geometry">
            <mxPoint x="-25.811621621621672" y="1020" as="sourcePoint" />
            <mxPoint x="-30" y="1060" as="targetPoint" />
          </mxGeometry>
        </mxCell>
        <mxCell id="UVYZc0HdikAsIzzW2pVC-84" value="" style="rounded=0;orthogonalLoop=1;jettySize=auto;html=1;endArrow=oval;endFill=0;sketch=0;sourcePerimeterSpacing=0;targetPerimeterSpacing=0;endSize=13;" edge="1" parent="1" source="UVYZc0HdikAsIzzW2pVC-30">
          <mxGeometry relative="1" as="geometry">
            <mxPoint x="310" y="1145" as="sourcePoint" />
            <mxPoint x="-40" y="1110" as="targetPoint" />
          </mxGeometry>
        </mxCell>
        <mxCell id="UVYZc0HdikAsIzzW2pVC-85" value="" style="ellipse;whiteSpace=wrap;html=1;align=center;aspect=fixed;fillColor=none;strokeColor=none;resizable=0;perimeter=centerPerimeter;rotatable=0;allowArrows=0;points=[];outlineConnect=1;" vertex="1" parent="1">
          <mxGeometry x="325" y="1140" width="10" height="10" as="geometry" />
        </mxCell>
        <mxCell id="UVYZc0HdikAsIzzW2pVC-100" value="" style="endArrow=open;startArrow=none;endFill=0;startFill=0;endSize=8;html=1;verticalAlign=bottom;dashed=1;labelBackgroundColor=none;rounded=0;" edge="1" parent="1">
          <mxGeometry width="160" relative="1" as="geometry">
            <mxPoint x="-30" y="1050" as="sourcePoint" />
            <mxPoint x="-40" y="1100" as="targetPoint" />
          </mxGeometry>
        </mxCell>
        <mxCell id="UVYZc0HdikAsIzzW2pVC-101" value="" style="rounded=0;orthogonalLoop=1;jettySize=auto;html=1;endArrow=halfCircle;endFill=0;endSize=6;strokeWidth=1;sketch=0;" edge="1" parent="1" source="UVYZc0HdikAsIzzW2pVC-3">
          <mxGeometry relative="1" as="geometry">
            <mxPoint x="410" y="785" as="sourcePoint" />
            <mxPoint x="560" y="820" as="targetPoint" />
            <Array as="points" />
          </mxGeometry>
        </mxCell>
        <mxCell id="UVYZc0HdikAsIzzW2pVC-102" value="" style="rounded=0;orthogonalLoop=1;jettySize=auto;html=1;endArrow=oval;endFill=0;sketch=0;sourcePerimeterSpacing=0;targetPerimeterSpacing=0;endSize=10;" edge="1" parent="1" source="UVYZc0HdikAsIzzW2pVC-21">
          <mxGeometry relative="1" as="geometry">
            <mxPoint x="370" y="785" as="sourcePoint" />
            <mxPoint x="600" y="820" as="targetPoint" />
            <Array as="points">
              <mxPoint x="600" y="820" />
            </Array>
          </mxGeometry>
        </mxCell>
        <mxCell id="UVYZc0HdikAsIzzW2pVC-103" value="" style="ellipse;whiteSpace=wrap;html=1;align=center;aspect=fixed;fillColor=none;strokeColor=none;resizable=0;perimeter=centerPerimeter;rotatable=0;allowArrows=0;points=[];outlineConnect=1;" vertex="1" parent="1">
          <mxGeometry x="385" y="780" width="10" height="10" as="geometry" />
        </mxCell>
        <mxCell id="UVYZc0HdikAsIzzW2pVC-104" value="" style="endArrow=none;startArrow=open;endFill=0;startFill=0;endSize=8;html=1;verticalAlign=bottom;dashed=1;labelBackgroundColor=none;rounded=0;" edge="1" parent="1">
          <mxGeometry width="160" relative="1" as="geometry">
            <mxPoint x="550" y="820" as="sourcePoint" />
            <mxPoint x="590" y="820" as="targetPoint" />
          </mxGeometry>
        </mxCell>
        <mxCell id="UVYZc0HdikAsIzzW2pVC-105" value="" style="rounded=0;orthogonalLoop=1;jettySize=auto;html=1;endArrow=halfCircle;endFill=0;endSize=6;strokeWidth=1;sketch=0;" edge="1" parent="1" source="UVYZc0HdikAsIzzW2pVC-21">
          <mxGeometry relative="1" as="geometry">
            <mxPoint x="500" y="765" as="sourcePoint" />
            <mxPoint x="910" y="630" as="targetPoint" />
            <Array as="points" />
          </mxGeometry>
        </mxCell>
        <mxCell id="UVYZc0HdikAsIzzW2pVC-106" value="" style="rounded=0;orthogonalLoop=1;jettySize=auto;html=1;endArrow=oval;endFill=0;sketch=0;sourcePerimeterSpacing=0;targetPerimeterSpacing=0;endSize=10;" edge="1" parent="1" source="UVYZc0HdikAsIzzW2pVC-6">
          <mxGeometry relative="1" as="geometry">
            <mxPoint x="460" y="765" as="sourcePoint" />
            <mxPoint x="910" y="610" as="targetPoint" />
          </mxGeometry>
        </mxCell>
        <mxCell id="UVYZc0HdikAsIzzW2pVC-107" value="" style="ellipse;whiteSpace=wrap;html=1;align=center;aspect=fixed;fillColor=none;strokeColor=none;resizable=0;perimeter=centerPerimeter;rotatable=0;allowArrows=0;points=[];outlineConnect=1;" vertex="1" parent="1">
          <mxGeometry x="475" y="760" width="10" height="10" as="geometry" />
        </mxCell>
        <mxCell id="UVYZc0HdikAsIzzW2pVC-108" value="" style="endArrow=none;startArrow=open;endFill=0;startFill=0;endSize=8;html=1;verticalAlign=bottom;dashed=1;labelBackgroundColor=none;rounded=0;" edge="1" parent="1">
          <mxGeometry width="160" relative="1" as="geometry">
            <mxPoint x="910" y="640" as="sourcePoint" />
            <mxPoint x="910" y="610" as="targetPoint" />
          </mxGeometry>
        </mxCell>
        <mxCell id="UVYZc0HdikAsIzzW2pVC-112" value="&amp;lt;&amp;lt;artifact&amp;gt;&amp;gt;&lt;br&gt;&lt;br&gt;&lt;b&gt;Component.jar&lt;/b&gt;" style="html=1;align=center;verticalAlign=middle;dashed=0;whiteSpace=wrap;" vertex="1" parent="1">
          <mxGeometry x="570" y="200" width="180" height="60" as="geometry" />
        </mxCell>
        <mxCell id="UVYZc0HdikAsIzzW2pVC-113" style="edgeStyle=orthogonalEdgeStyle;rounded=0;orthogonalLoop=1;jettySize=auto;html=1;dashed=1;endArrow=open;endFill=0;" edge="1" parent="1" source="UVYZc0HdikAsIzzW2pVC-6" target="UVYZc0HdikAsIzzW2pVC-112">
          <mxGeometry relative="1" as="geometry" />
        </mxCell>
        <mxCell id="UVYZc0HdikAsIzzW2pVC-114" value="&amp;lt;&amp;lt;manifest&amp;gt;&amp;gt;" style="text;html=1;align=center;verticalAlign=middle;resizable=0;points=[];autosize=1;strokeColor=none;fillColor=none;" vertex="1" parent="1">
          <mxGeometry x="650" y="330" width="100" height="30" as="geometry" />
        </mxCell>
        <mxCell id="UVYZc0HdikAsIzzW2pVC-115" style="edgeStyle=orthogonalEdgeStyle;rounded=0;orthogonalLoop=1;jettySize=auto;html=1;dashed=1;endArrow=open;endFill=0;" edge="1" parent="1" source="UVYZc0HdikAsIzzW2pVC-3" target="UVYZc0HdikAsIzzW2pVC-112">
          <mxGeometry relative="1" as="geometry">
            <Array as="points">
              <mxPoint x="-45" y="240" />
            </Array>
          </mxGeometry>
        </mxCell>
        <mxCell id="UVYZc0HdikAsIzzW2pVC-116" value="&amp;lt;&amp;lt;uses&amp;gt;&amp;gt;" style="text;html=1;align=center;verticalAlign=middle;resizable=0;points=[];autosize=1;strokeColor=none;fillColor=none;" vertex="1" parent="1">
          <mxGeometry x="210" y="198" width="80" height="30" as="geometry" />
        </mxCell>
      </root>
    </mxGraphModel>
  </diagram>
</mxfile>
